<mxfile host="app.diagrams.net" agent="Mozilla/5.0 (Macintosh; Intel Mac OS X 10_15_7) AppleWebKit/537.36 (KHTML, like Gecko) Chrome/128.0.0.0 Safari/537.36" version="24.7.14">
  <diagram name="Page-1" id="IfFX8mJ04GbaoHIJeMbz">
    <mxGraphModel dx="794" dy="540" grid="1" gridSize="10" guides="1" tooltips="1" connect="1" arrows="1" fold="1" page="1" pageScale="1" pageWidth="827" pageHeight="1169" math="0" shadow="0">
      <root>
        <mxCell id="0" />
        <mxCell id="1" parent="0" />
        <mxCell id="H_vaQIR4ZPwfIJq-jm_V-2" value="" style="endArrow=classic;html=1;rounded=0;exitX=1;exitY=0.5;exitDx=0;exitDy=0;entryX=0;entryY=0.5;entryDx=0;entryDy=0;" edge="1" parent="1" target="H_vaQIR4ZPwfIJq-jm_V-6">
          <mxGeometry width="50" height="50" relative="1" as="geometry">
            <mxPoint x="200" y="230" as="sourcePoint" />
            <mxPoint x="254" y="230" as="targetPoint" />
          </mxGeometry>
        </mxCell>
        <mxCell id="H_vaQIR4ZPwfIJq-jm_V-4" value="" style="endArrow=classic;html=1;rounded=0;exitX=1;exitY=0.5;exitDx=0;exitDy=0;entryX=0;entryY=0.5;entryDx=0;entryDy=0;" edge="1" parent="1" source="H_vaQIR4ZPwfIJq-jm_V-6" target="H_vaQIR4ZPwfIJq-jm_V-7">
          <mxGeometry width="50" height="50" relative="1" as="geometry">
            <mxPoint x="414" y="230" as="sourcePoint" />
            <mxPoint x="330" y="300" as="targetPoint" />
          </mxGeometry>
        </mxCell>
        <mxCell id="H_vaQIR4ZPwfIJq-jm_V-6" value="&lt;font style=&quot;font-size: 23px;&quot;&gt;LPF&lt;/font&gt;" style="rounded=1;whiteSpace=wrap;html=1;" vertex="1" parent="1">
          <mxGeometry x="240" y="200" width="120" height="60" as="geometry" />
        </mxCell>
        <mxCell id="H_vaQIR4ZPwfIJq-jm_V-7" value="&lt;span style=&quot;font-size: 23px;&quot;&gt;resonator&lt;/span&gt;" style="rounded=1;whiteSpace=wrap;html=1;" vertex="1" parent="1">
          <mxGeometry x="400" y="190" width="150" height="80" as="geometry" />
        </mxCell>
        <mxCell id="H_vaQIR4ZPwfIJq-jm_V-8" value="&lt;font style=&quot;font-size: 15px;&quot;&gt;g&lt;/font&gt;" style="triangle;whiteSpace=wrap;html=1;" vertex="1" parent="1">
          <mxGeometry x="600" y="200" width="50" height="60" as="geometry" />
        </mxCell>
        <mxCell id="H_vaQIR4ZPwfIJq-jm_V-9" value="" style="endArrow=classic;html=1;rounded=0;exitX=1;exitY=0.5;exitDx=0;exitDy=0;entryX=0;entryY=0.5;entryDx=0;entryDy=0;" edge="1" parent="1" source="H_vaQIR4ZPwfIJq-jm_V-7" target="H_vaQIR4ZPwfIJq-jm_V-8">
          <mxGeometry width="50" height="50" relative="1" as="geometry">
            <mxPoint x="430" y="290" as="sourcePoint" />
            <mxPoint x="480" y="240" as="targetPoint" />
          </mxGeometry>
        </mxCell>
        <mxCell id="H_vaQIR4ZPwfIJq-jm_V-11" value="&lt;font style=&quot;font-size: 19px;&quot;&gt;input&lt;/font&gt;" style="html=1;shape=mxgraph.infographic.ribbonSimple;notch1=0;notch2=25;align=center;verticalAlign=middle;fontSize=14;fontStyle=0;fillColor=#FFFFFF;whiteSpace=wrap;" vertex="1" parent="1">
          <mxGeometry x="90" y="212.5" width="110" height="35" as="geometry" />
        </mxCell>
        <mxCell id="H_vaQIR4ZPwfIJq-jm_V-12" value="&lt;font style=&quot;font-size: 19px;&quot;&gt;output&lt;/font&gt;" style="html=1;shape=mxgraph.infographic.ribbonSimple;notch1=0;notch2=25;align=center;verticalAlign=middle;fontSize=14;fontStyle=0;fillColor=#FFFFFF;whiteSpace=wrap;" vertex="1" parent="1">
          <mxGeometry x="690" y="212.5" width="110" height="35" as="geometry" />
        </mxCell>
        <mxCell id="H_vaQIR4ZPwfIJq-jm_V-13" value="" style="endArrow=classic;html=1;rounded=0;exitX=1;exitY=0.5;exitDx=0;exitDy=0;entryX=0;entryY=0;entryDx=0;entryDy=17.5;entryPerimeter=0;" edge="1" parent="1" source="H_vaQIR4ZPwfIJq-jm_V-8" target="H_vaQIR4ZPwfIJq-jm_V-12">
          <mxGeometry width="50" height="50" relative="1" as="geometry">
            <mxPoint x="600" y="270" as="sourcePoint" />
            <mxPoint x="650" y="220" as="targetPoint" />
          </mxGeometry>
        </mxCell>
      </root>
    </mxGraphModel>
  </diagram>
</mxfile>
